<?xml version="1.0" encoding="iso-8859-1"?>
<!-- Uploaded to: SVG Repo, www.svgrepo.com, Generator: SVG Repo Mixer Tools -->
<svg fill="#000000" height="800px" width="800px" version="1.1" id="Layer_1" xmlns="http://www.w3.org/2000/svg" xmlns:xlink="http://www.w3.org/1999/xlink" 
	 viewBox="0 0 501.333 501.333" xml:space="preserve">
<g>
	<g>
		<path d="M492.708,295.466L272.974,121.6v-48h20.267c11.733,0,21.333-9.6,21.333-21.333s-9.6-21.333-21.333-21.333h-20.267v-9.6
			C272.974,9.6,263.374,0,251.641,0c-11.733,0-21.333,9.6-21.333,21.333v9.6h-21.333c-11.733,0-21.333,9.6-21.333,21.333
			s9.6,21.333,21.333,21.333h21.333v46.933L8.441,295.466c-6.4,5.333-9.6,14.933-6.4,23.467c3.2,8.533,11.733,13.867,20.267,13.867
			h56.533V480c0,11.733,9.6,21.333,21.333,21.333h106.667c11.733,0,21.333-9.6,21.333-21.333v-69.333
			c0-12.8,10.667-23.467,23.467-23.467c12.8,0,23.467,10.667,23.467,23.467V480c0,11.733,9.6,21.333,21.333,21.333h106.667
			c10.667,0,20.267-9.6,18.133-21.333V332.8h57.6c9.6,0,17.067-5.333,20.267-13.867C502.307,310.4,500.174,300.8,492.708,295.466z
			 M403.108,291.2L403.108,291.2c-11.733,0-21.333,9.6-21.333,21.333v147.2h-64v-49.066c0-36.267-29.867-66.133-66.133-66.133
			c-36.267,0-66.133,29.867-66.133,66.133v49.067h-64v-147.2c0-11.733-9.6-21.333-21.333-21.333H82.041l169.6-133.333L421.24,291.2
			H403.108z"/>
	</g>
</g>
</svg>